# xmcd
#
# Track frame offsets:
#	150
#	16862
#	40058
#
# Disc length: 739 seconds
# Revision: 0
# Processed by: cddbd v1.5.2PL0 Copyright (c) Steve Scherf et al.
# Submitted via: dBpowerAMP V12.0
#
DISCID=1602e103
DTITLE=Oliver Frank - Land in Sicht
DYEAR=2003
DGENRE=Discofox
TTITLE0=Land in Sicht (Single)
TTITLE1=Land in Sicht (Maxi)
TTITLE2=Es darf nicht sein
EXTD=
EXTT0=
EXTT1=
EXTT2=
PLAYORDER=
